<?xml version="1.0" encoding="utf-8"?>
<!-- Generated by IcoMoon.io -->
<!DOCTYPE svg PUBLIC "-//W3C//DTD SVG 1.1//EN" "http://www.w3.org/Graphics/SVG/1.1/DTD/svg11.dtd">
<svg version="1.1" xmlns="http://www.w3.org/2000/svg" xmlns:xlink="http://www.w3.org/1999/xlink" width="1024" height="1024" viewBox="0 0 1024 1024">
<g id="icomoon-ignore">
</g>
<path d="M707.14 316.86c-11.592-11.592-28.981-11.592-40.574 0l-152.634 152.634-152.634-152.634c-11.592-11.592-28.981-11.592-40.574 0s-11.592 28.981 0 40.574l152.634 152.634-152.634 152.634c-11.592 11.592-11.592 28.981 0 40.574 5.796 5.796 13.525 7.728 21.253 7.728s15.457-1.932 21.253-7.728l152.634-152.634 152.634 152.634c5.796 5.796 13.525 7.728 21.253 7.728s15.457-1.932 21.253-7.728c11.592-11.592 11.592-28.981 0-40.574l-152.634-152.634 152.634-152.634c5.796-9.66 5.796-28.981-3.864-40.574z"></path>
<path d="M512 0c-282.083 0-512 229.917-512 512s229.917 512 512 512c282.083 0 512-229.917 512-512s-229.917-512-512-512zM512 966.038c-251.17 0-454.038-202.868-454.038-454.038s202.868-454.038 454.038-454.038c251.17 0 454.038 202.868 454.038 454.038s-202.868 454.038-454.038 454.038z"></path>
</svg>
