<svg id="Layer_1" data-name="Layer 1" xmlns="http://www.w3.org/2000/svg" viewBox="0 0 694.4 107.63"><defs><style>.cls-1{fill:#fff;}</style></defs><title>logo</title><path class="cls-1" d="M171.62,49.25c-17-1.52-33-3-34.35-19.42a17.88,17.88,0,0,1,4.49-14C148.37,8,160.45,5.13,169.55,5c10.85-.18,20.79,3.09,26.56,8.66a20,20,0,0,1,5.52,9.91l0.15,1.07a2,2,0,0,0,2.34,1.69l2.4-.43a2,2,0,0,0,1.63-2.24L208,22.51s0-.09,0-0.13c-2.2-10.58-11-18.58-24-21.94C166.15-4.13,146.27.72,136.63,12a23.93,23.93,0,0,0-5.75,18.33c1.66,21.66,22,23.5,39.93,25.13,15.61,1.41,30.35,2.75,33.4,15.44a18.9,18.9,0,0,1-3.58,16.78c-5.91,7.43-17.87,12.24-30.47,12.24C154.8,99.88,138,92,136.46,78.76l-0.16-1a2,2,0,0,0-2.2-1.68l-2.56.29a2,2,0,0,0-1.75,2.3l0.15,0.93C132,96.77,152.09,106,170,106c14.72,0,28.83-5.83,35.94-14.85a24.6,24.6,0,0,0,4.57-21.68C206.43,52.37,188.74,50.79,171.62,49.25Z" transform="translate(0 1.44)"/><path class="cls-1" d="M311,0H231.12a2,2,0,0,0-2,2V4.31a2,2,0,0,0,2,2h36.72V103a2,2,0,0,0,2,2h2.4a2,2,0,0,0,2-2V6.31H311a2,2,0,0,0,2-2V2A2,2,0,0,0,311,0Z" transform="translate(0 1.44)"/><path class="cls-1" d="M547.44,0.14h-2.56a2,2,0,0,0-2,2V75.61c0,15.76-17.85,24.27-34.64,24.27S473.6,91.42,473.6,75.75V2.14a2,2,0,0,0-2-2H469a2,2,0,0,0-2,2V75.61c0,19.86,21.23,30.58,41.2,30.58,10,0,20-2.75,27.58-7.55C544.73,93,549.44,85,549.44,75.75V2.14A2,2,0,0,0,547.44.14Z" transform="translate(0 1.44)"/><path class="cls-1" d="M692.4,0h-2.56a2,2,0,0,0-1.6.8l-45,59.79L598.48,0.8a2,2,0,0,0-1.6-.8h-2.56a2,2,0,0,0-2,2V103a2,2,0,0,0,2,2h2.4a2,2,0,0,0,2-2V11.35l42,56.36a2,2,0,0,0,1.6.81h2.08a2,2,0,0,0,1.6-.81l42-56.36V103a2,2,0,0,0,2,2h2.4a2,2,0,0,0,2-2V2A2,2,0,0,0,692.4,0Z" transform="translate(0 1.44)"/><path class="cls-1" d="M391.28,63c10.92,0,20.12-3.39,26.61-9.8a30.27,30.27,0,0,0,9-21.71C426.88,16.34,415.74,0,391.28,0H350.56V6.32h40.72c20.06,0,29.2,13.1,29.2,25.28a24.09,24.09,0,0,1-7.2,17.33c-5.29,5.2-12.89,8-22,8H367.52V62L420.33,105h10L378.82,63h12.46Z" transform="translate(0 1.44)"/><path class="cls-1" d="M51.51-.25a2,2,0,0,0-1.83-1.2H47a2,2,0,0,0-1.83,1.2l-45,102.48A2,2,0,0,0,2,105H4.72a2,2,0,0,0,1.83-1.2L48.23,8.6,72.56,65H43.13a2,2,0,0,0-2,2v2.16a2,2,0,0,0,2,2H75.27L90.1,103.86A2,2,0,0,0,91.92,105h2.72a2,2,0,0,0,1.83-2.8Z" transform="translate(0 1.44)"/></svg>